<svg height="507pt" viewBox="-30 0 507 507.25327" width="507pt" xmlns="http://www.w3.org/2000/svg"><path d="m204.316406 287.699219c.136719.054687.273438.105469.414063.152343 2.707031.992188 5.675781.992188 8.382812 0 .160157-.054687.316407-.113281.476563-.175781 55.699218-22.566406 74.488281-64.335937 68.398437-95.714843l-.011719-.058594c-4.609374-22.851563-21.300781-37.613282-42.519531-37.613282-9.820312 0-20.253906 3.355469-30.460937 9.75-10.328125-6.695312-20.652344-10.082031-30.765625-10.082031-21.359375 0-37.992188 14.929688-42.371094 38.019531-6.082031 31.714844 12.722656 73.609376 68.457031 95.722657zm-52.742187-92.722657c2.925781-15.429687 13.140625-25.015624 26.652343-25.015624 8.015626 0 16.976563 3.523437 25.914063 10.191406 2.808594 2.09375 6.648437 2.117187 9.484375.0625 8.941406-6.492188 17.875-9.921875 25.828125-9.921875 13.464844 0 23.742187 9.480469 26.832031 24.746093 4.78125 24.707032-11.148437 58.027344-57.375 77.265626-46.222656-18.84375-62.132812-52.304688-57.335937-77.328126zm0 0"/><path d="m276.988281 65.941406c16.167969.015625 29.273438 13.121094 29.292969 29.289063 0 4.421875 3.582031 8 8 8s8-3.578125 8-8c-.027344-25-20.289062-45.261719-45.292969-45.289063-4.417969 0-8 3.582032-8 8 0 4.417969 3.582031 8 8 8zm0 0"/><path d="m135.277344 401.574219c4.417968 0 8-3.582031 8-8 0-4.421875-3.582032-8-8-8-16.171875-.019531-29.277344-13.125-29.292969-29.292969 0-4.417969-3.582031-8-8-8s-8 3.582031-8 8c.027344 25 20.289063 45.261719 45.292969 45.292969zm0 0"/><path d="m32.394531 408.539062c2.332031 24.484376 22.875 43.199219 47.46875 43.246094 1.53125 0 3.070313-.222656 4.613281-.367187l94.664063-9.164063h52.636719v56.523438c0 4.417968 3.230468 8.476562 7.648437 8.476562h200c4.578125-.195312 8.222657-3.898437 8.351563-8.476562v-58.5c-.082032-4.195313-3.335938-7.644532-7.519532-7.964844 3.351563-7.3125 5.078126-15.265625 5.0625-23.308594.035157-46.101562.03125-63 .050782-72.128906.023437-8.40625 0-10.222656-.023438-22.125.046875-15.589844-5.617187-30.652344-15.929687-42.339844l-69.640625-78.597656v-137.082031c0-26.339844-21.914063-47.476563-48.253906-47.476563h-25.585938c-9.410156-6.976562-21.082031-10.191406-32.734375-9.015625l-94.660156 9.015625h-57.800781c-9.410157-.058594-18.621094 2.683594-26.464844 7.878906l-30.902344 2.871094c-12.609375 1.183594-24.234375 7.332032-32.304688 17.089844-8.074218 9.761719-11.933593 22.332031-10.726562 34.941406zm399.382813 82.714844h-184v-43h184zm-14.328125-208.210937c7.746093 8.757812 12.015625 20.050781 11.996093 31.746093.027344 11.863282-.035156 13.671876-.054687 22.046876-.023437 9.128906-.09375 26.027343-.128906 72.144531-.058594 8.355469-2.707031 16.488281-7.585938 23.273437h-166.433593c-1.25-.960937-2.433594-2-3.550782-3.113281-5.71875-5.929687-8.914062-13.84375-8.914062-22.082031v-95.882813c0-9.113281 7.386718-16.5 16.5-16.5 9.109375 0 16.5 7.386719 16.5 16.5v24.554688c.058594 11.078125 4.921875 21.582031 13.332031 28.792969 8.410156 7.210937 19.535156 10.417968 30.492187 8.785156l10.09375-1.472656c17.234376-2.457032 30.050782-17.203126 30.082032-34.613282v-119.328125zm-316.707031-257.789063h210.78125c17.519531 0 32.253906 13.960938 32.253906 31.476563v280.492187c-.0625 9.46875-7.050782 17.464844-16.421875 18.789063l-9.941407 1.472656c-6.390624.953125-12.882812-.898437-17.808593-5.085937-4.902344-4.15625-7.761719-10.238282-7.828125-16.667969v-24.554688c0-17.949219-14.550782-32.5-32.5-32.5-17.949219 0-32.5 14.550781-32.5 32.5v95.882813c.058594 6.632812 1.527344 13.175781 4.3125 19.195312h-130.347656c-17.519532 0-31.964844-13.957031-31.964844-31.472656v-338.050781c0-17.515625 14.445312-31.476563 31.964844-31.476563zm-77.339844 22c5.351562-6.515625 13.089844-10.617187 21.484375-11.394531l13.460937-1.292969c-3.632812 6.828125-5.542968 14.433594-5.570312 22.164063v338.050781c.046875 16.640625 8.730468 32.066406 22.941406 40.730469-14.660156-1.949219-26.03125-13.761719-27.421875-28.488281l-32.039063-336.523438c-.816406-8.394531 1.757813-16.761719 7.144532-23.246094zm0 0"/></svg>